<svg width="13" height="13" viewBox="0 0 13 13" fill="none" xmlns="http://www.w3.org/2000/svg">
<g clip-path="url(#clip0_7_5)">
<rect width="13" height="13" fill="white"/>
<line x1="1.5" y1="1" x2="1.5" y2="9" stroke="#1E395B"/>
<line y1="2.5" x2="3" y2="2.5" stroke="#1E395B"/>
<line x1="13" y1="11.5" x2="4" y2="11.5" stroke="#1E395B"/>
<line y1="-0.5" x2="3" y2="-0.5" transform="matrix(0 -1 -1 0 11 13)" stroke="#1E395B"/>
<line x1="7" y1="8.5" x2="10" y2="8.5" stroke="#1E395B"/>
<line x1="4" y1="7.5" x2="5" y2="7.5" stroke="#1E395B"/>
<line x1="4.5" y1="4" x2="4.5" y2="6" stroke="#1E395B"/>
<line x1="12.5" y1="4" x2="12.5" y2="6" stroke="#1E395B"/>
<line x1="7" y1="1.5" x2="10" y2="1.5" stroke="#1E395B"/>
<line x1="5" y1="8.5" x2="6" y2="8.5" stroke="#1E395B"/>
<line x1="4" y1="8.5" x2="5" y2="8.5" stroke="#1E395B" stroke-opacity="0.5"/>
<line y1="-0.5" x2="1" y2="-0.5" transform="matrix(1 0 0 -1 4 2)" stroke="#1E395B"/>
<line y1="-0.5" x2="1" y2="-0.5" transform="matrix(1 0 0 -1 5 1)" stroke="#1E395B"/>
<line y1="-0.5" x2="1" y2="-0.5" transform="matrix(1 0 0 -1 4 1)" stroke="#1E395B" stroke-opacity="0.5"/>
<line x1="13" y1="2.5" x2="12" y2="2.5" stroke="#1E395B"/>
<line x1="12" y1="1.5" x2="11" y2="1.5" stroke="#1E395B"/>
<line x1="13" y1="2.5" x2="12" y2="2.5" stroke="#1E395B"/>
<line x1="12" y1="1.5" x2="11" y2="1.5" stroke="#1E395B"/>
<line x1="13" y1="1.5" x2="12" y2="1.5" stroke="#1E395B" stroke-opacity="0.5"/>
<line y1="-0.5" x2="1" y2="-0.5" transform="matrix(-1 0 0 1 13 8)" stroke="#1E395B"/>
<line y1="-0.5" x2="1" y2="-0.5" transform="matrix(-1 0 0 1 12 9)" stroke="#1E395B"/>
<line y1="-0.5" x2="1" y2="-0.5" transform="matrix(-1 0 0 1 13 9)" stroke="#1E395B" stroke-opacity="0.5"/>
</g>
<defs>
<clipPath id="clip0_7_5">
<rect width="13" height="13" fill="white"/>
</clipPath>
</defs>
</svg>
